<svg width="250" height="48" viewBox="0 0 250 48" fill="none" xmlns="http://www.w3.org/2000/svg">
<path d="M75.962 35.3968V17.577C78.0337 15.8937 80.1539 15.0521 82.3227 15.0521C83.2291 15.0521 84.0464 15.2706 84.7748 15.7076C85.5031 16.1446 86.0129 16.7515 86.3042 17.5284C86.5308 18.1435 86.6441 19.1631 86.6441 20.5874V35.3968H92.4708V19.8591C92.4708 18.4995 92.3494 17.2857 92.1066 16.2174C91.8638 15.1492 91.4025 14.1619 90.7228 13.2556C89.9783 12.2521 88.9991 11.4995 87.7852 10.9977C86.5713 10.496 85.3008 10.2451 83.9736 10.2451C82.9054 10.2451 81.9343 10.3908 81.0603 10.6821C79.3447 11.2001 77.6452 12.1064 75.962 13.4012V1.40809C73.8256 1.73179 71.8833 2.34682 70.1354 3.25319V35.3968H75.962ZM112.54 36.3679C115.033 36.3679 117.185 35.8095 118.998 34.6927C120.811 33.5759 122.203 32.0222 123.174 30.0314C124.145 28.0406 124.631 25.7828 124.631 23.2579C124.631 20.8626 124.185 18.6695 123.295 16.6787C122.405 14.6879 121.046 13.1018 119.217 11.9203C117.388 10.7388 115.146 10.148 112.492 10.148C110.096 10.148 107.984 10.6821 106.155 11.7504C104.326 12.8186 102.91 14.3481 101.907 16.3388C100.903 18.3296 100.401 20.636 100.401 23.2579C100.401 25.6533 100.855 27.8464 101.761 29.8372C102.667 31.8279 104.027 33.4141 105.84 34.5956C107.652 35.7771 109.886 36.3679 112.54 36.3679ZM112.54 31.5609C110.598 31.5609 109.085 30.784 108 29.2302C106.916 27.6765 106.374 25.6857 106.374 23.2579C106.374 20.7654 106.9 18.7585 107.952 17.2371C109.004 15.7157 110.517 14.955 112.492 14.955C114.466 14.955 115.988 15.6995 117.056 17.1885C118.124 18.6776 118.658 20.7007 118.658 23.2579C118.658 25.621 118.156 27.5956 117.153 29.1817C116.15 30.7678 114.612 31.5609 112.54 31.5609ZM140.67 36.3679C142.483 36.3679 144.166 35.8904 145.72 34.9355C147.273 33.9806 148.358 32.9043 148.973 31.7066C149.523 30.606 149.798 29.4083 149.798 28.1135C149.798 27.0776 149.596 26.0903 149.191 25.1516C148.787 24.2129 148.196 23.436 147.419 22.821C146.772 22.303 145.995 21.8984 145.088 21.6071C144.053 21.251 143.195 20.992 142.515 20.8302C142.062 20.7007 141.503 20.5308 140.84 20.3204C140.176 20.11 139.618 19.9076 139.165 19.7134C138.032 19.2926 137.465 18.5481 137.465 17.4799C137.465 17.0914 137.53 16.7596 137.66 16.4845C137.789 16.2093 138.016 15.9585 138.339 15.7319C138.987 15.2463 140.023 15.0036 141.447 15.0036C141.9 15.0036 142.612 15.1492 143.583 15.4406C144.457 15.7643 145.105 16.0232 145.525 16.2174L148.827 13.0613C147.662 12.0579 146.302 11.3215 144.749 10.8521C143.195 10.3827 141.9 10.148 140.864 10.148C138.048 10.148 135.863 10.8116 134.309 12.1388C133.468 12.8509 132.772 13.7411 132.221 14.8093C131.671 15.8776 131.396 16.962 131.396 18.0625C131.396 19.3897 131.833 20.6279 132.707 21.777C133.581 22.9262 134.601 23.7111 135.766 24.1319L140.379 25.7343C141.771 26.0903 142.742 26.5759 143.292 27.1909C143.583 27.547 143.729 27.984 143.729 28.5019V28.6961C143.697 29.3112 143.429 29.91 142.928 30.4927C142.426 31.0753 141.576 31.4314 140.379 31.5609C139.634 31.6256 138.534 31.4476 137.077 31.0268C135.62 30.606 134.536 30.1528 133.824 29.6672L131.105 33.1147C132.464 34.1505 133.953 34.9517 135.572 35.5181C137.19 36.0846 138.89 36.3679 140.67 36.3679ZM168.023 36.3679C169.738 36.3679 171.454 36.0927 173.17 35.5424L171.616 31.1239C170.612 31.4152 169.657 31.5609 168.751 31.5609C167.262 31.5609 166.291 31.1886 165.838 30.4441C165.611 30.0233 165.498 29.3435 165.498 28.4048V15.9747H172.053V11.1191H165.498V5.53528C163.426 5.92373 161.484 6.66824 159.671 7.76882V11.1191H155.787V15.9747H159.671V29.0846C159.671 30.5736 159.865 31.7551 160.254 32.6291C160.804 33.8592 161.694 34.7817 162.924 35.3968C163.507 35.7205 164.308 35.9632 165.328 36.1251C166.348 36.2869 167.246 36.3679 168.023 36.3679ZM187.412 6.99194V1.45664C186.344 1.29479 185.373 1.21387 184.499 1.21387C183.625 1.21387 182.654 1.29479 181.586 1.45664V6.99194H187.412ZM187.412 35.3968V11.1191H181.586V35.3968H187.412ZM201.655 11.1191H195.829V35.3968H201.655V17.577C202.529 16.8325 203.509 16.2255 204.593 15.7562C205.677 15.2868 206.818 15.0521 208.016 15.0521C208.922 15.0521 209.74 15.2706 210.468 15.7076C211.196 16.1446 211.706 16.7515 211.998 17.5284C212.224 18.1435 212.337 19.1631 212.337 20.5874V35.3968H218.164V19.8591C218.164 18.4995 218.043 17.2857 217.8 16.2174C217.557 15.1492 217.096 14.1619 216.416 13.2556C215.639 12.2197 214.644 11.4509 213.43 10.9492C212.216 10.4475 210.946 10.1966 209.618 10.1966C208.647 10.1966 207.725 10.3261 206.851 10.585C205.912 10.844 205.046 11.2082 204.253 11.6775C203.46 12.1469 202.594 12.7053 201.655 13.3527V11.1191ZM236.291 47.5841C239.367 47.746 241.794 47.3899 243.575 46.5159C245.355 45.6419 246.715 44.4118 247.653 42.8257C248.236 41.7575 248.608 40.6164 248.77 39.4026C248.932 38.1887 249.013 36.4488 249.013 34.1829V11.1191H243.186V13.4498C242.571 12.4787 241.738 11.6856 240.686 11.0706C239.634 10.4555 238.509 10.148 237.311 10.148C234.948 10.148 232.884 10.7064 231.12 11.8232C229.356 12.94 227.997 14.4937 227.042 16.4845C226.087 18.4753 225.609 20.7331 225.609 23.2579C225.609 25.7505 226.087 27.9921 227.042 29.9828C227.997 31.9736 229.356 33.5355 231.12 34.6684C232.884 35.8014 234.948 36.3679 237.311 36.3679C238.509 36.3679 239.634 36.0603 240.686 35.4453C241.738 34.8303 242.571 34.0372 243.186 33.0661V35.4453C243.186 37.517 242.822 39.2083 242.094 40.5193C241.365 41.8303 239.82 42.4858 237.457 42.4858C234.543 42.4858 231.873 41.7737 229.445 40.3494L227.114 44.5252C228.053 45.1726 229.324 45.82 230.926 46.4674C232.528 47.1148 234.317 47.487 236.291 47.5841ZM237.554 31.5609C236.68 31.5609 235.879 31.3829 235.15 31.0268C234.422 30.6707 233.799 30.1528 233.281 29.473C232.666 28.6961 232.221 27.7331 231.946 26.584C231.671 25.4348 231.533 24.2614 231.533 23.0637C231.533 21.0568 231.954 19.3007 232.795 17.7955C233.637 16.2903 234.916 15.3758 236.631 15.0521C237.084 14.9874 237.424 14.955 237.651 14.955C238.719 14.955 239.747 15.2221 240.734 15.7562C241.721 16.2903 242.539 16.9458 243.186 17.7227V28.7447C242.506 29.5216 241.665 30.1852 240.661 30.7355C239.658 31.2857 238.622 31.5609 237.554 31.5609Z" fill="#231F20"/>
<path d="M49.7799 6.16652V0.194221C49.0354 0.0647402 48.1614 0 47.1579 0C46.1868 0 45.3614 0.0647402 44.6816 0.194221V6.16652H49.7799ZM52.1591 23.3551C53.81 22.6429 55.2019 21.688 56.3349 20.4903L51.4308 13.644L59.3453 10.9735C59.2482 9.35498 58.7788 7.75265 57.9372 6.16652L49.7799 8.7885H44.6816L36.5729 6.11796C35.6665 7.73647 35.1648 9.35498 35.0677 10.9735L43.1764 13.644L38.1267 20.4903C39.3567 21.7204 40.7486 22.6753 42.3024 23.3551L47.1579 16.6059L52.1591 23.3551Z" fill="#FCC238"/>
<path d="M5.82663 6.99194V1.45664C4.75841 1.29479 3.78731 1.21387 2.91331 1.21387C2.03932 1.21387 1.06822 1.29479 0 1.45664V6.99194H5.82663ZM5.82663 35.3968V11.1191H0V35.3968H5.82663ZM22.1897 36.3679C24.0025 36.3679 25.6857 35.8904 27.2395 34.9355C28.7933 33.9806 29.8777 32.9043 30.4927 31.7066C31.043 30.606 31.3181 29.4083 31.3181 28.1135C31.3181 27.0776 31.1158 26.0903 30.7112 25.1516C30.3066 24.2129 29.7158 23.436 28.9389 22.821C28.2915 22.303 27.5146 21.8984 26.6083 21.6071C25.5724 21.251 24.7146 20.992 24.0348 20.8302C23.5817 20.7007 23.0233 20.5308 22.3597 20.3204C21.6961 20.11 21.1377 19.9076 20.6845 19.7134C19.5516 19.2926 18.9851 18.5481 18.9851 17.4799C18.9851 17.0914 19.0498 16.7596 19.1793 16.4845C19.3088 16.2093 19.5354 15.9585 19.8591 15.7319C20.5065 15.2463 21.5423 15.0036 22.9666 15.0036C23.4198 15.0036 24.132 15.1492 25.1031 15.4406C25.9771 15.7643 26.6245 16.0232 27.0453 16.2174L30.347 13.0613C29.1817 12.0579 27.8222 11.3215 26.2684 10.8521C24.7146 10.3827 23.4198 10.148 22.384 10.148C19.5678 10.148 17.3828 10.8116 15.829 12.1388C14.9874 12.8509 14.2914 13.7411 13.7411 14.8093C13.1908 15.8776 12.9157 16.962 12.9157 18.0625C12.9157 19.3897 13.3527 20.6279 14.2267 21.777C15.1007 22.9262 16.1203 23.7111 17.2857 24.1319L21.8984 25.7343C23.2903 26.0903 24.2614 26.5759 24.8117 27.1909C25.1031 27.547 25.2487 27.984 25.2487 28.5019V28.6961C25.2164 29.3112 24.9493 29.91 24.4476 30.4927C23.9458 31.0753 23.0961 31.4314 21.8984 31.5609C21.1539 31.6256 20.0533 31.4476 18.5967 31.0268C17.14 30.606 16.0556 30.1528 15.3435 29.6672L12.6244 33.1147C13.9839 34.1505 15.4729 34.9517 17.0914 35.5181C18.71 36.0846 20.4094 36.3679 22.1897 36.3679Z" fill="#231F20"/>
</svg>
